<mxfile host="app.diagrams.net" modified="2024-04-06T11:22:28.172Z" agent="Mozilla/5.0 (X11; Linux x86_64) AppleWebKit/537.36 (KHTML, like Gecko) Chrome/121.0.0.0 Safari/537.36" etag="zqd8JDgQ1ugFRzxyyCk7" version="23.1.5" type="github">
  <diagram name="Page-1" id="fKlAaRpJU4PqiwiT2pyU">
    <mxGraphModel dx="1050" dy="481" grid="1" gridSize="10" guides="1" tooltips="1" connect="1" arrows="1" fold="1" page="1" pageScale="1" pageWidth="850" pageHeight="1100" math="0" shadow="0">
      <root>
        <mxCell id="0" />
        <mxCell id="1" parent="0" />
        <mxCell id="h4RColSD4rGsD0uKyqrQ-3" value="" style="image;html=1;image=img/lib/clip_art/computers/Server_Rack_128x128.png" vertex="1" parent="1">
          <mxGeometry x="590" y="70" width="80" height="80" as="geometry" />
        </mxCell>
        <mxCell id="h4RColSD4rGsD0uKyqrQ-4" value="" style="image;html=1;image=img/lib/clip_art/computers/Server_Rack_128x128.png" vertex="1" parent="1">
          <mxGeometry x="610" y="180" width="80" height="80" as="geometry" />
        </mxCell>
        <mxCell id="h4RColSD4rGsD0uKyqrQ-5" value="" style="image;html=1;image=img/lib/clip_art/computers/Server_Rack_128x128.png" vertex="1" parent="1">
          <mxGeometry x="610" y="290" width="80" height="80" as="geometry" />
        </mxCell>
        <mxCell id="h4RColSD4rGsD0uKyqrQ-2" value="DNS Resolver" style="rounded=0;whiteSpace=wrap;html=1;direction=south;" vertex="1" parent="1">
          <mxGeometry x="410" y="150" width="60" height="170" as="geometry" />
        </mxCell>
        <mxCell id="h4RColSD4rGsD0uKyqrQ-13" value="" style="endArrow=classic;html=1;rounded=0;exitX=-0.037;exitY=0.6;exitDx=0;exitDy=0;exitPerimeter=0;" edge="1" parent="1" source="h4RColSD4rGsD0uKyqrQ-3">
          <mxGeometry width="50" height="50" relative="1" as="geometry">
            <mxPoint x="560" y="120" as="sourcePoint" />
            <mxPoint x="480" y="160" as="targetPoint" />
            <Array as="points" />
          </mxGeometry>
        </mxCell>
        <mxCell id="h4RColSD4rGsD0uKyqrQ-14" value="" style="endArrow=classic;html=1;rounded=0;entryX=0;entryY=0.25;entryDx=0;entryDy=0;" edge="1" parent="1" target="h4RColSD4rGsD0uKyqrQ-3">
          <mxGeometry width="50" height="50" relative="1" as="geometry">
            <mxPoint x="470" y="130" as="sourcePoint" />
            <mxPoint x="520" y="80" as="targetPoint" />
            <Array as="points">
              <mxPoint x="530" y="100" />
            </Array>
          </mxGeometry>
        </mxCell>
        <mxCell id="h4RColSD4rGsD0uKyqrQ-15" value="" style="endArrow=classic;html=1;rounded=0;entryX=0;entryY=0.25;entryDx=0;entryDy=0;" edge="1" parent="1" target="h4RColSD4rGsD0uKyqrQ-4">
          <mxGeometry width="50" height="50" relative="1" as="geometry">
            <mxPoint x="500" y="220" as="sourcePoint" />
            <mxPoint x="620" y="190" as="targetPoint" />
            <Array as="points" />
          </mxGeometry>
        </mxCell>
        <mxCell id="h4RColSD4rGsD0uKyqrQ-16" value="" style="endArrow=classic;html=1;rounded=0;" edge="1" parent="1" target="h4RColSD4rGsD0uKyqrQ-5">
          <mxGeometry width="50" height="50" relative="1" as="geometry">
            <mxPoint x="500" y="300" as="sourcePoint" />
            <mxPoint x="600" y="280" as="targetPoint" />
            <Array as="points">
              <mxPoint x="540" y="300" />
            </Array>
          </mxGeometry>
        </mxCell>
        <mxCell id="h4RColSD4rGsD0uKyqrQ-17" value="" style="endArrow=classic;html=1;rounded=0;exitX=-0.05;exitY=0.6;exitDx=0;exitDy=0;exitPerimeter=0;" edge="1" parent="1" source="h4RColSD4rGsD0uKyqrQ-4">
          <mxGeometry width="50" height="50" relative="1" as="geometry">
            <mxPoint x="607" y="210" as="sourcePoint" />
            <mxPoint x="500" y="242" as="targetPoint" />
            <Array as="points">
              <mxPoint x="560" y="240" />
            </Array>
          </mxGeometry>
        </mxCell>
        <mxCell id="h4RColSD4rGsD0uKyqrQ-18" value="" style="endArrow=classic;html=1;rounded=0;exitX=0;exitY=0.5;exitDx=0;exitDy=0;" edge="1" parent="1" source="h4RColSD4rGsD0uKyqrQ-5">
          <mxGeometry width="50" height="50" relative="1" as="geometry">
            <mxPoint x="597" y="310" as="sourcePoint" />
            <mxPoint x="480" y="320" as="targetPoint" />
            <Array as="points">
              <mxPoint x="550" y="342" />
            </Array>
          </mxGeometry>
        </mxCell>
        <mxCell id="h4RColSD4rGsD0uKyqrQ-19" value="Root Server" style="text;html=1;align=center;verticalAlign=middle;resizable=0;points=[];autosize=1;strokeColor=none;fillColor=none;" vertex="1" parent="1">
          <mxGeometry x="585" y="38" width="90" height="30" as="geometry" />
        </mxCell>
        <mxCell id="h4RColSD4rGsD0uKyqrQ-20" value="TLD Server" style="text;html=1;align=center;verticalAlign=middle;resizable=0;points=[];autosize=1;strokeColor=none;fillColor=none;" vertex="1" parent="1">
          <mxGeometry x="675" y="190" width="80" height="30" as="geometry" />
        </mxCell>
        <mxCell id="h4RColSD4rGsD0uKyqrQ-21" value="Authoritative Name &lt;br&gt;Server" style="text;html=1;align=center;verticalAlign=middle;resizable=0;points=[];autosize=1;strokeColor=none;fillColor=none;" vertex="1" parent="1">
          <mxGeometry x="670" y="310" width="130" height="40" as="geometry" />
        </mxCell>
        <mxCell id="h4RColSD4rGsD0uKyqrQ-22" value="&lt;font style=&quot;font-size: 9px;&quot;&gt;TLD server Address&lt;/font&gt;" style="text;html=1;align=center;verticalAlign=middle;resizable=0;points=[];autosize=1;strokeColor=none;fillColor=none;" vertex="1" parent="1">
          <mxGeometry x="500" y="150" width="100" height="30" as="geometry" />
        </mxCell>
        <mxCell id="h4RColSD4rGsD0uKyqrQ-23" value="&lt;font style=&quot;font-size: 9px;&quot;&gt;Authoritative Name &lt;br&gt;Server Address&lt;/font&gt;" style="text;html=1;align=center;verticalAlign=middle;resizable=0;points=[];autosize=1;strokeColor=none;fillColor=none;" vertex="1" parent="1">
          <mxGeometry x="505" y="240" width="100" height="40" as="geometry" />
        </mxCell>
        <mxCell id="h4RColSD4rGsD0uKyqrQ-24" value="&lt;font style=&quot;font-size: 9px;&quot;&gt;IP Address&lt;/font&gt;" style="text;html=1;align=center;verticalAlign=middle;resizable=0;points=[];autosize=1;strokeColor=none;fillColor=none;" vertex="1" parent="1">
          <mxGeometry x="515" y="338" width="70" height="30" as="geometry" />
        </mxCell>
        <mxCell id="h4RColSD4rGsD0uKyqrQ-25" value="" style="image;html=1;image=img/lib/clip_art/computers/Monitor_Tower_128x128.png" vertex="1" parent="1">
          <mxGeometry x="210" y="180" width="80" height="80" as="geometry" />
        </mxCell>
        <mxCell id="h4RColSD4rGsD0uKyqrQ-26" value="Browser" style="text;html=1;align=center;verticalAlign=middle;resizable=0;points=[];autosize=1;strokeColor=none;fillColor=none;" vertex="1" parent="1">
          <mxGeometry x="210" y="245" width="70" height="30" as="geometry" />
        </mxCell>
        <mxCell id="h4RColSD4rGsD0uKyqrQ-28" value="" style="shape=flexArrow;endArrow=classic;html=1;rounded=0;" edge="1" parent="1" source="h4RColSD4rGsD0uKyqrQ-25">
          <mxGeometry width="50" height="50" relative="1" as="geometry">
            <mxPoint x="640" y="240" as="sourcePoint" />
            <mxPoint x="410" y="220" as="targetPoint" />
            <Array as="points">
              <mxPoint x="390" y="220" />
            </Array>
          </mxGeometry>
        </mxCell>
        <mxCell id="h4RColSD4rGsD0uKyqrQ-29" value="Query" style="text;html=1;align=center;verticalAlign=middle;resizable=0;points=[];autosize=1;strokeColor=none;fillColor=none;" vertex="1" parent="1">
          <mxGeometry x="310" y="180" width="60" height="30" as="geometry" />
        </mxCell>
      </root>
    </mxGraphModel>
  </diagram>
</mxfile>
